<?xml version="1.0" standalone="no"?>
<!DOCTYPE svg PUBLIC "-//W3C//DTD SVG 20010904//EN"
 "http://www.w3.org/TR/2001/REC-SVG-20010904/DTD/svg10.dtd">
<svg version="1.0" xmlns="http://www.w3.org/2000/svg"
 width="512.000000pt" height="512.000000pt" viewBox="0 0 512.000000 512.000000"
 preserveAspectRatio="xMidYMid meet">

<g transform="translate(0.000000,512.000000) scale(0.100000,-0.100000)"
fill="#000000" stroke="none">
<path d="M0 2565 l0 -2555 2560 0 2560 0 0 2555 0 2555 -2560 0 -2560 0 0
-2555z m2963 1088 c3 -6 -366 -2118 -382 -2190 -2 -7 -380 -2 -384 5 -4 6 361
2098 378 2170 5 22 7 22 195 22 104 0 191 -3 193 -7z m-806 -252 l-42 -242
-507 -292 c-279 -161 -507 -294 -507 -297 0 -3 178 -153 395 -335 217 -181
394 -334 394 -339 0 -15 -72 -421 -76 -424 -1 -2 -235 191 -518 429 l-516 433
0 250 0 251 707 407 c389 224 708 406 710 405 1 -2 -17 -112 -40 -246z m1711
-185 l512 -430 0 -250 0 -251 -707 -407 c-388 -225 -708 -407 -709 -405 -2 2
16 112 39 245 l42 242 507 293 c279 160 507 294 507 297 0 3 -178 153 -395
334 -217 182 -394 332 -394 335 -1 23 75 431 80 429 4 -2 237 -196 518 -432z"/>
</g>
</svg>
